<svg xmlns="http://www.w3.org/2000/svg" width="24" height="24" viewBox="0 0 24 24" fill="none">
  <path fill-rule="evenodd" clip-rule="evenodd" d="M16 3.243H8C5.23858 3.243 3 5.48158 3 8.243V16.243C3 19.0044 5.23858 21.243 8 21.243H16C18.7614 21.243 21 19.0044 21 16.243V8.243C21 5.48158 18.7614 3.243 16 3.243ZM19.25 16.243C19.2445 18.0356 17.7926 19.4875 16 19.493H8C6.20735 19.4875 4.75549 18.0356 4.75 16.243V8.243C4.75549 6.45035 6.20735 4.99849 8 4.993H16C17.7926 4.99849 19.2445 6.45035 19.25 8.243V16.243ZM16.75 8.493C17.3023 8.493 17.75 8.04528 17.75 7.493C17.75 6.94072 17.3023 6.493 16.75 6.493C16.1977 6.493 15.75 6.94072 15.75 7.493C15.75 8.04528 16.1977 8.493 16.75 8.493ZM12 7.743C9.51472 7.743 7.5 9.75772 7.5 12.243C7.5 14.7283 9.51472 16.743 12 16.743C14.4853 16.743 16.5 14.7283 16.5 12.243C16.5027 11.0487 16.0294 9.90257 15.1849 9.05808C14.3404 8.21359 13.1943 7.74034 12 7.743ZM9.25 12.243C9.25 13.7618 10.4812 14.993 12 14.993C13.5188 14.993 14.75 13.7618 14.75 12.243C14.75 10.7242 13.5188 9.493 12 9.493C10.4812 9.493 9.25 10.7242 9.25 12.243Z" fill="#F5F4EF"/>
</svg>
