<svg xmlns="http://www.w3.org/2000/svg" width="24" height="24" viewBox="0 0 24 24" fill="none">
  <path fill-rule="evenodd" clip-rule="evenodd" d="M4.5 3.243C3.67157 3.243 3 3.91457 3 4.743V19.743C3 20.5714 3.67157 21.243 4.5 21.243H19.5C20.3284 21.243 21 20.5714 21 19.743V4.743C21 3.91457 20.3284 3.243 19.5 3.243H4.5ZM8.52076 7.24572C8.52639 8.20197 7.81061 8.79119 6.96123 8.78697C6.16107 8.78275 5.46357 8.14572 5.46779 7.24713C5.47201 6.40197 6.13998 5.72275 7.00764 5.74244C7.88795 5.76213 8.52639 6.4076 8.52076 7.24572ZM12.2797 10.0048H9.75971H9.7583V18.5646H12.4217V18.3649C12.4217 17.985 12.4214 17.605 12.4211 17.2249C12.4203 16.2111 12.4194 15.1962 12.4246 14.1827C12.426 13.9366 12.4372 13.6807 12.5005 13.4458C12.7381 12.5683 13.5271 12.0016 14.4074 12.1409C14.9727 12.2294 15.3467 12.5571 15.5042 13.0901C15.6013 13.4233 15.6449 13.7819 15.6491 14.1293C15.6605 15.1769 15.6589 16.2245 15.6573 17.2722C15.6567 17.642 15.6561 18.012 15.6561 18.3818V18.5632H18.328V18.3579C18.328 17.9059 18.3278 17.454 18.3275 17.0021C18.327 15.8726 18.3264 14.7431 18.3294 13.6132C18.3308 13.1027 18.276 12.5993 18.1508 12.1057C17.9638 11.3716 17.5771 10.7641 16.9485 10.3254C16.5027 10.0132 16.0133 9.8121 15.4663 9.7896C15.404 9.78701 15.3412 9.78362 15.2781 9.78021C14.9984 9.76509 14.7141 9.74973 14.4467 9.80366C13.6817 9.95694 13.0096 10.3071 12.5019 10.9244C12.4429 10.9952 12.3852 11.0671 12.2991 11.1744L12.2797 11.1987V10.0048ZM5.68164 18.5674H8.33242V10.0103H5.68164V18.5674Z" fill="#F5F4EF"/>
</svg>
