<svg xmlns="http://www.w3.org/2000/svg" width="24" height="24" viewBox="0 0 24 24" fill="none">
  <path d="M21.5924 7.20301C21.4785 6.78041 21.2559 6.39501 20.9467 6.08518C20.6376 5.77534 20.2527 5.55187 19.8304 5.43701C18.2644 5.00701 11.9994 5.00001 11.9994 5.00001C11.9994 5.00001 5.73535 4.99301 4.16835 5.40401C3.74628 5.52415 3.36217 5.75078 3.05292 6.06214C2.74366 6.3735 2.51964 6.75913 2.40235 7.18201C1.98935 8.74801 1.98535 11.996 1.98535 11.996C1.98535 11.996 1.98135 15.26 2.39135 16.81C2.62135 17.667 3.29635 18.344 4.15435 18.575C5.73635 19.005 11.9844 19.012 11.9844 19.012C11.9844 19.012 18.2494 19.019 19.8154 18.609C20.2378 18.4943 20.6231 18.2714 20.933 17.9622C21.2429 17.653 21.4667 17.2682 21.5824 16.846C21.9964 15.281 21.9994 12.034 21.9994 12.034C21.9994 12.034 22.0194 8.76901 21.5924 7.20301ZM9.99535 15.005L10.0004 9.00501L15.2074 12.01L9.99535 15.005Z" fill="#F5F4EF"/>
</svg>
