<svg viewBox="0 0 1345 465" fill="none" xmlns="http://www.w3.org/2000/svg"><g clip-path="url(#a)" fill="#000"><path d="M646.88 126.387c19.875 0 36.454-16.32 36.454-35.217V37.041c0-20.224-16.579-35.857-36.454-35.857s-36.438 15.633-36.438 35.857v54.144c0 18.897 16.578 35.217 36.438 35.217M1154.1 138.777c-20.54 0-36.44 16.304-36.44 35.857v251.092c0 19.568 15.9 35.857 36.44 35.857s37.12-16.289 37.12-35.857V174.634c0-19.553-16.56-35.857-37.12-35.857ZM1304.56 139.442c-35.12 0-73.57 17.6-92.78 42.385-11.92 14.992-9.27 37.824 5.31 49.568 7.29 5.857 15.23 7.809 25.83 7.809 27.14 0 26.18-18.378 65.62-28.033 27.29-6.68 36.45-15.648 36.45-35.872s-15.9-35.857-40.43-35.857ZM928.12 131.609c-90.135 0-160.38 69.778-160.38 161.747 0 20.849 16.579 36.513 36.438 36.513 19.86 0 36.454-16.945 36.454-38.465 0-51.521 35.788-88.69 87.488-88.69 40.942 0 71.87 22.908 83 58.048H899.623c-22.522 0-37.785 15.634-37.785 34.546 0 20.224 15.263 34.561 37.785 34.561h152.427c16.99 0 30.55-10.478 34.16-26.142 1.48-3.996 2.29-8.373 2.29-12.979 0-89.346-70.24-159.123-160.38-159.123M1045.43 360.509c-13.93-13.696-36.45-13.04-51.033 1.297-19.225 18.927-39.781 27.407-66.282 27.407-26.5 0-47.041-8.48-62.969-24.799-16.563-15.633-40.416-16.945-54.332-3.905-15.897 13.696-15.247 37.825 1.316 54.785 29.828 29.345 71.576 45.649 115.985 45.649 44.41 0 86.825-16.945 116.655-46.961 15.89-15.648 16.56-39.136.66-53.473ZM736.036 139.442H590.238c-20.556 0-37.135 15.648-37.135 35.857s16.579 35.872 37.135 35.872h145.798c20.541 0 36.438-15.648 36.438-35.872s-15.897-35.857-36.438-35.857ZM496.665 1.168c-19.875 0-36.437 16.304-36.437 35.857V425.72c0 19.553 16.562 35.857 36.437 35.857 19.876 0 36.454-16.304 36.454-35.857V37.025c0-19.553-15.913-35.857-36.454-35.857ZM269.743 258.789H167.007c-23.203 0-36.438 16.305-36.438 35.217 0 20.224 15.897 35.872 36.438 35.872h102.736c21.206 0 37.784-15.648 37.119-35.872 0-18.912-16.563-35.217-37.119-35.217ZM88.857 282.259c-19.875-7.184-39.766 3.264-47.056 22.832L2.05 414.646c-6.626 18.912 3.312 39.136 22.521 45.649 10.604 3.263 37.12 3.904 46.391-21.521l39.766-110.225c6.625-18.913-3.978-39.762-21.872-46.305M395.718 305.083c-6.625-18.912-27.847-28.704-45.725-22.161-19.876 6.513-29.179 27.393-22.523 45.649l39.101 109.555c8.606 24.128 33.791 26.736 47.041 22.161 17.894-6.513 28.497-26.722 21.872-44.978l-39.766-110.226Z"/><path d="M331.566 260.045c-14.798 0-28.713-8.953-34.147-23.427L241.261 87.104c-3.467-9.258-12.538-15.45-22.538-15.45-9.999 0-19.07 6.192-22.537 15.45l-56.159 149.514c-6.965 18.562-27.909 28.048-46.762 21.185-18.87-6.863-28.513-27.469-21.547-46.03l56.174-149.53C141.854 25.028 178.385 0 218.723 0c40.339 0 76.854 25.028 90.832 62.273l56.158 149.53c6.982 18.562-2.662 39.167-21.531 46.03a36.864 36.864 0 0 1-12.616 2.227M715.166 465.003c-57.769 0-104.748-46.244-104.748-103.072V260.307c0-19.812 16.331-35.887 36.469-35.887 20.139 0 36.485 16.075 36.485 35.887v101.624c0 17.25 14.256 31.281 31.794 31.281 20.138 0 36.469 16.076 36.469 35.903 0 19.828-16.331 35.888-36.469 35.888Z"/></g><defs><clipPath id="a"><path fill="#fff" d="M0 0h1345v465H0z"/></clipPath></defs></svg>